<svg width="251" height="160" viewBox="0 0 251 160" fill="none" xmlns="http://www.w3.org/2000/svg">
<path d="M44.849 51.5125L43.82 49.7975L40.6959 51.672L43.9546 53.3014L44.849 51.5125ZM51.643 57.3605L49.9607 58.442L49.9697 58.4561L49.9789 58.4699L51.643 57.3605ZM50.869 75.5065L52.453 76.7275L52.4591 76.7197L52.4651 76.7117L50.869 75.5065ZM41.925 81.9565L42.6486 83.8211L42.6606 83.8164L42.6726 83.8116L41.925 81.9565ZM15.265 81.9565L14.5078 83.8076L14.5246 83.8145L14.5415 83.8211L15.265 81.9565ZM6.40703 75.5065L4.79526 76.6907L4.80892 76.7093L4.82301 76.7275L6.40703 75.5065ZM5.63303 57.3605L3.96892 56.2511L3.95968 56.265L3.95067 56.279L5.63303 57.3605ZM12.427 51.5125L13.3354 53.2943L16.5092 51.6763L13.4752 49.8092L12.427 51.5125ZM7.26703 46.3525L5.52765 47.3397L5.5335 47.35L5.53947 47.3603L7.26703 46.3525ZM16.555 24.0785L17.2873 25.9397L17.3004 25.9345L17.3135 25.9291L16.555 24.0785ZM40.721 24.0785L39.9626 25.9291L39.9807 25.9366L39.999 25.9437L40.721 24.0785ZM48.977 30.0125L50.5728 28.8069L50.5728 28.8069L48.977 30.0125ZM50.095 46.3525L51.8226 47.3603L51.8286 47.35L51.8344 47.3397L50.095 46.3525ZM21.801 34.2265L23.0438 35.7935L23.0504 35.7883L21.801 34.2265ZM21.801 45.1485L20.5582 46.7155H20.5582L21.801 45.1485ZM35.475 34.2265L34.2256 35.7883L34.2418 35.8012L34.2582 35.8137L35.475 34.2265ZM36.851 71.6365L38.0726 73.2201L38.0789 73.2152L36.851 71.6365ZM36.851 58.9945L35.6294 60.5781L35.6402 60.5864L35.651 60.5945L36.851 58.9945ZM20.425 58.9945L19.2034 57.411L20.425 58.9945ZM20.425 71.6365L19.2034 73.2201H19.2034L20.425 71.6365ZM43.9546 53.3014C46.668 54.6581 48.637 56.383 49.9607 58.442L53.3254 56.279C51.5531 53.5221 48.9927 51.3483 45.7435 49.7237L43.9546 53.3014ZM49.9789 58.4699C51.3456 60.5199 52.051 62.9071 52.051 65.7025H56.051C56.051 62.1913 55.1511 59.0171 53.3071 56.2511L49.9789 58.4699ZM52.051 65.7025C52.051 69.0214 51.1162 71.8602 49.2729 74.3013L52.4651 76.7117C54.8645 73.5342 56.051 69.8369 56.051 65.7025H52.051ZM49.285 74.2855C47.4195 76.7057 44.7522 78.6609 41.1775 80.1015L42.6726 83.8116C46.7805 82.1561 50.0759 79.8114 52.453 76.7275L49.285 74.2855ZM41.2015 80.092C37.6362 81.4755 33.4467 82.1925 28.595 82.1925V86.1925C33.834 86.1925 38.5312 85.4189 42.6486 83.8211L41.2015 80.092ZM28.595 82.1925C23.7433 82.1925 19.5538 81.4755 15.9886 80.092L14.5415 83.8211C18.6589 85.4189 23.356 86.1925 28.595 86.1925V82.1925ZM16.0223 80.1054C12.5065 78.6672 9.86183 76.7125 7.99105 74.2855L4.82301 76.7275C7.19489 79.8046 10.4555 82.1499 14.5078 83.8076L16.0223 80.1054ZM8.01879 74.3224C6.22488 71.8807 5.31103 69.0344 5.31103 65.7025H1.31103C1.31103 69.824 2.46117 73.5137 4.79526 76.6907L8.01879 74.3224ZM5.31103 65.7025C5.31103 62.8923 5.99558 60.4951 7.31538 58.442L3.95067 56.279C2.17448 59.042 1.31103 62.2061 1.31103 65.7025H5.31103ZM7.29713 58.4699C8.68802 56.3836 10.6752 54.6505 13.3354 53.2943L11.5187 49.7307C8.33087 51.3559 5.7887 53.5215 3.96892 56.2511L7.29713 58.4699ZM13.4752 49.8092C11.4912 48.5883 10.0168 47.0972 8.99458 45.3448L5.53947 47.3603C6.92521 49.7358 8.89086 51.6848 11.3788 53.2158L13.4752 49.8092ZM9.0064 45.3653C7.99066 43.5757 7.46103 41.5142 7.46103 39.1285H3.46103C3.46103 42.1321 4.13539 44.8867 5.52765 47.3397L9.0064 45.3653ZM7.46103 39.1285C7.46103 36.0287 8.3156 33.4221 9.98076 31.2182L6.78929 28.8069C4.55579 31.763 3.46103 35.2337 3.46103 39.1285H7.46103ZM9.98076 31.2182C11.6741 28.9769 14.0761 27.2031 17.2873 25.9397L15.8228 22.2174C12.0393 23.706 8.99457 25.8881 6.78929 28.8069L9.98076 31.2182ZM17.3135 25.9291C20.5274 24.6119 24.2753 23.9285 28.595 23.9285V19.9285C23.856 19.9285 19.5773 20.6784 15.7966 22.2279L17.3135 25.9291ZM28.595 23.9285C32.9757 23.9285 36.7514 24.6131 39.9626 25.9291L41.4795 22.2279C37.696 20.6773 33.3877 19.9285 28.595 19.9285V23.9285ZM39.999 25.9437C43.2696 27.2097 45.6936 28.9845 47.3813 31.2182L50.5728 28.8069C48.3618 25.8805 45.2818 23.6994 41.443 22.2134L39.999 25.9437ZM47.3813 31.2182C49.0465 33.4221 49.901 36.0287 49.901 39.1285H53.901C53.901 35.2337 52.8063 31.763 50.5728 28.8069L47.3813 31.2182ZM49.901 39.1285C49.901 41.5142 49.3714 43.5757 48.3557 45.3653L51.8344 47.3397C53.2267 44.8867 53.901 42.1321 53.901 39.1285H49.901ZM48.3675 45.3448C47.3526 47.0846 45.8597 48.5737 43.82 49.7975L45.878 53.2275C48.425 51.6993 50.4295 49.7484 51.8226 47.3603L48.3675 45.3448ZM28.595 30.1625C25.4587 30.1625 22.7142 30.9347 20.5516 32.6648L23.0504 35.7883C24.3278 34.7663 26.1127 34.1625 28.595 34.1625V30.1625ZM20.5582 32.6595C18.3614 34.4018 17.307 36.8443 17.307 39.7305H21.307C21.307 37.9154 21.9153 36.6885 23.0438 35.7935L20.5582 32.6595ZM17.307 39.7305C17.307 42.5778 18.3746 44.9837 20.5582 46.7155L23.0438 43.5815C21.9021 42.676 21.307 41.4699 21.307 39.7305H17.307ZM20.5582 46.7155C22.6808 48.3989 25.4347 49.1265 28.595 49.1265V45.1265C26.022 45.1265 24.2466 44.5355 23.0438 43.5815L20.5582 46.7155ZM28.595 49.1265C31.7599 49.1265 34.5248 48.3972 36.6919 46.7357L34.2582 43.5613C32.9852 44.5372 31.1635 45.1265 28.595 45.1265V49.1265ZM36.6919 46.7357C38.938 45.0137 40.055 42.6039 40.055 39.7305H36.055C36.055 41.4438 35.4521 42.646 34.2582 43.5613L36.6919 46.7357ZM40.055 39.7305C40.055 36.8185 38.9519 34.3719 36.6919 32.6393L34.2582 35.8137C35.4382 36.7184 36.055 37.9412 36.055 39.7305H40.055ZM36.7244 32.6648C34.5551 30.9294 31.7776 30.1625 28.595 30.1625V34.1625C31.1457 34.1625 32.9549 34.7717 34.2256 35.7883L36.7244 32.6648ZM28.595 75.9585C32.3691 75.9585 35.6044 75.1241 38.0726 73.2201L35.6294 70.053C34.0843 71.2449 31.8156 71.9585 28.595 71.9585V75.9585ZM38.0789 73.2152C40.635 71.2272 41.947 68.5208 41.947 65.2725H37.947C37.947 67.2989 37.1951 68.8352 35.6231 70.0578L38.0789 73.2152ZM41.947 65.2725C41.947 62.0221 40.6317 59.33 38.051 57.3945L35.651 60.5945C37.1984 61.755 37.947 63.2482 37.947 65.2725H41.947ZM38.0726 57.411C35.6044 55.5069 32.3691 54.6725 28.595 54.6725V58.6725C31.8156 58.6725 34.0843 59.3861 35.6294 60.5781L38.0726 57.411ZM28.595 54.6725C24.8694 54.6725 21.6665 55.5109 19.2034 57.411L21.6466 60.5781C23.1969 59.3822 25.4407 58.6725 28.595 58.6725V54.6725ZM19.2034 57.411C16.6831 59.3552 15.415 62.0446 15.415 65.2725H19.415C19.415 63.2258 20.1536 61.7298 21.6466 60.5781L19.2034 57.411ZM15.415 65.2725C15.415 68.5417 16.671 71.2665 19.2034 73.2201L21.6466 70.053C20.1658 68.9106 19.415 67.3927 19.415 65.2725H15.415ZM19.2034 73.2201C21.6665 75.1202 24.8694 75.9585 28.595 75.9585V71.9585C25.4407 71.9585 23.1969 71.2489 21.6466 70.053L19.2034 73.2201ZM113.576 71.8085H115.576V69.8085H113.576V71.8085ZM113.576 83.1605V85.1605H115.576V83.1605H113.576ZM68.0825 83.1605H66.0825V85.1605H68.0825V83.1605ZM68.0825 74.1305L66.7092 72.6765L66.0825 73.2684V74.1305H68.0825ZM91.3025 52.2005L92.6757 53.6546L92.6826 53.648L91.3025 52.2005ZM96.2905 46.1805L98.0669 47.0994L98.0732 47.0872L98.0793 47.0749L96.2905 46.1805ZM95.0865 35.6025L93.817 37.148L93.8469 37.1725L93.8777 37.1959L95.0865 35.6025ZM80.8105 35.1725L81.6455 36.9899L81.6655 36.9807L81.6854 36.971L80.8105 35.1725ZM75.4785 39.6445L74.3955 41.326L75.998 42.3581L77.1059 40.807L75.4785 39.6445ZM65.3305 33.1085L63.6706 31.9928L62.5328 33.6856L64.2475 34.79L65.3305 33.1085ZM75.0485 24.9385L75.9025 26.747L75.9127 26.7422L75.9228 26.7373L75.0485 24.9385ZM100.934 24.1645L100.116 25.9895L100.135 25.998L100.154 26.006L100.934 24.1645ZM108.76 30.3565L107.107 31.4821L107.121 31.5024L107.135 31.5223L108.76 30.3565ZM109.534 48.9325L111.338 49.798L109.534 48.9325ZM101.536 58.7365L100.176 57.2702L100.17 57.2762L100.163 57.2822L101.536 58.7365ZM87.6905 71.8085L86.3175 70.3542L82.6587 73.8085H87.6905V71.8085ZM111.576 71.8085V83.1605H115.576V71.8085H111.576ZM113.576 81.1605H68.0825V85.1605H113.576V81.1605ZM70.0825 83.1605V74.1305H66.0825V83.1605H70.0825ZM69.4557 75.5845L92.6757 53.6545L89.9292 50.7465L66.7092 72.6765L69.4557 75.5845ZM92.6826 53.648C95.1995 51.2482 97.0534 49.0588 98.0669 47.0994L94.514 45.2617C93.8075 46.6276 92.3361 48.4515 89.9223 50.753L92.6826 53.648ZM98.0793 47.0749C99.0564 45.1208 99.5805 43.1249 99.5805 41.1065H95.5805C95.5805 42.4134 95.2445 43.8003 94.5016 45.2861L98.0793 47.0749ZM99.5805 41.1065C99.5805 38.1822 98.5374 35.7101 96.2952 34.0091L93.8777 37.1959C94.9608 38.0176 95.5805 39.2149 95.5805 41.1065H99.5805ZM96.3559 34.0571C94.2486 32.326 91.3354 31.6245 87.9485 31.6245V35.6245C90.8682 35.6245 92.7137 36.2417 93.817 37.148L96.3559 34.0571ZM87.9485 31.6245C85.0441 31.6245 82.3602 32.1945 79.9355 33.3741L81.6854 36.971C83.5034 36.0865 85.5782 35.6245 87.9485 35.6245V31.6245ZM79.9755 33.3552C77.5194 34.4836 75.4751 36.2083 73.851 38.482L77.1059 40.807C78.3485 39.0674 79.8588 37.8108 81.6455 36.9899L79.9755 33.3552ZM76.5614 37.9631L66.4134 31.4271L64.2475 34.79L74.3955 41.326L76.5614 37.9631ZM66.9904 34.2242C69.1231 31.0511 72.0725 28.5556 75.9025 26.747L74.1945 23.13C69.7684 25.2201 66.2391 28.1713 63.6706 31.9928L66.9904 34.2242ZM75.9228 26.7373C79.7376 24.8829 84.1605 23.9285 89.2385 23.9285V19.9285C83.6524 19.9285 78.6153 20.9809 74.1741 23.1398L75.9228 26.7373ZM89.2385 23.9285C93.491 23.9285 97.0998 24.6373 100.116 25.9895L101.753 22.3395C98.1184 20.7104 93.9299 19.9285 89.2385 19.9285V23.9285ZM100.154 26.006C103.229 27.3091 105.515 29.1441 107.107 31.4821L110.414 29.2309C108.336 26.1796 105.405 23.8866 101.715 22.323L100.154 26.006ZM107.135 31.5223C108.756 33.7818 109.598 36.4874 109.598 39.7305H113.598C113.598 35.7497 112.549 32.2059 110.386 29.1907L107.135 31.5223ZM109.598 39.7305C109.598 42.7075 108.974 45.4781 107.731 48.0671L111.338 49.798C112.847 46.6536 113.598 43.2895 113.598 39.7305H109.598ZM107.731 48.0671C106.514 50.6029 104.058 53.6694 100.176 57.2702L102.897 60.2029C106.926 56.465 109.803 52.9954 111.338 49.798L107.731 48.0671ZM100.163 57.2822L86.3175 70.3542L89.0634 73.2628L102.909 60.1908L100.163 57.2822ZM87.6905 73.8085H113.576V69.8085H87.6905V73.8085Z" fill="url(#paint0_linear_64_4118)"/>
<path d="M11.201 120.74C12.1477 120.967 12.861 121.373 13.341 121.96C13.8344 122.533 14.081 123.273 14.081 124.18C14.081 125.393 13.6344 126.333 12.741 127C11.861 127.667 10.5744 128 8.88103 128H2.48103V114H8.50103C10.0344 114 11.2277 114.313 12.081 114.94C12.9477 115.553 13.381 116.44 13.381 117.6C13.381 118.36 13.1877 119.007 12.801 119.54C12.4277 120.073 11.8944 120.473 11.201 120.74ZM4.46103 120.16H8.36103C9.33436 120.16 10.0744 119.967 10.581 119.58C11.101 119.193 11.361 118.627 11.361 117.88C11.361 117.133 11.101 116.567 10.581 116.18C10.061 115.78 9.32103 115.58 8.36103 115.58H4.46103V120.16ZM8.84103 126.42C10.9877 126.42 12.061 125.62 12.061 124.02C12.061 123.22 11.7877 122.633 11.241 122.26C10.7077 121.873 9.90769 121.68 8.84103 121.68H4.46103V126.42H8.84103ZM26.6824 122.76C26.6824 122.907 26.6691 123.1 26.6424 123.34H18.0424C18.1624 124.273 18.5691 125.027 19.2624 125.6C19.9691 126.16 20.8424 126.44 21.8824 126.44C23.1491 126.44 24.1691 126.013 24.9424 125.16L26.0024 126.4C25.5224 126.96 24.9224 127.387 24.2024 127.68C23.4958 127.973 22.7024 128.12 21.8224 128.12C20.7024 128.12 19.7091 127.893 18.8424 127.44C17.9758 126.973 17.3024 126.327 16.8224 125.5C16.3558 124.673 16.1224 123.74 16.1224 122.7C16.1224 121.673 16.3491 120.747 16.8024 119.92C17.2691 119.093 17.9024 118.453 18.7024 118C19.5158 117.533 20.4291 117.3 21.4424 117.3C22.4558 117.3 23.3558 117.533 24.1424 118C24.9424 118.453 25.5624 119.093 26.0024 119.92C26.4558 120.747 26.6824 121.693 26.6824 122.76ZM21.4424 118.92C20.5224 118.92 19.7491 119.2 19.1224 119.76C18.5091 120.32 18.1491 121.053 18.0424 121.96H24.8424C24.7358 121.067 24.3691 120.34 23.7424 119.78C23.1291 119.207 22.3624 118.92 21.4424 118.92ZM40.2652 126.32V130.46H38.4652V128H29.6052V130.46H27.7852V126.32H28.3452C29.0252 126.28 29.4919 125.8 29.7452 124.88C29.9986 123.96 30.1719 122.66 30.2652 120.98L30.4252 117.4H38.6452V126.32H40.2652ZM32.0252 121.12C31.9719 122.453 31.8586 123.56 31.6852 124.44C31.5252 125.307 31.2252 125.933 30.7852 126.32H36.7252V119.08H32.1252L32.0252 121.12ZM52.2265 117.4L47.0865 129.06C46.6332 130.14 46.0998 130.9 45.4865 131.34C44.8865 131.78 44.1598 132 43.3065 132C42.7865 132 42.2798 131.913 41.7865 131.74C41.3065 131.58 40.9065 131.34 40.5865 131.02L41.4065 129.58C41.9532 130.1 42.5865 130.36 43.3065 130.36C43.7732 130.36 44.1598 130.233 44.4665 129.98C44.7865 129.74 45.0732 129.32 45.3265 128.72L45.6665 127.98L40.9865 117.4H42.9865L46.6865 125.88L50.3465 117.4H52.2265ZM69.2923 117.4V128H54.1923V117.4H56.1123V126.32H60.7923V117.4H62.7123V126.32H67.3723V117.4H69.2923ZM70.8723 126.32V130.26H69.0723V128H67.2923V126.32H70.8723ZM73.0204 117.4H74.9404V125.12L81.4404 117.4H83.1804V128H81.2604V120.28L74.7804 128H73.0204V117.4ZM93.5271 128L90.4671 123.94L87.3671 128H85.2271L89.4071 122.58L85.4271 117.4H87.5671L90.4871 121.22L93.3871 117.4H95.4871L91.4871 122.58L95.7071 128H93.5271ZM11.981 143.4V154H10.061V145.08H4.08103V154H2.16103V143.4H11.981ZM21.3162 143.3C22.3428 143.3 23.2628 143.527 24.0762 143.98C24.8895 144.433 25.5228 145.067 25.9762 145.88C26.4428 146.693 26.6762 147.633 26.6762 148.7C26.6762 149.767 26.4428 150.713 25.9762 151.54C25.5228 152.353 24.8895 152.987 24.0762 153.44C23.2628 153.893 22.3428 154.12 21.3162 154.12C20.5562 154.12 19.8562 153.973 19.2162 153.68C18.5895 153.387 18.0562 152.96 17.6162 152.4V157.88H15.6962V143.4H17.5362V145.08C17.9628 144.493 18.5028 144.053 19.1562 143.76C19.8095 143.453 20.5295 143.3 21.3162 143.3ZM21.1562 152.44C21.8362 152.44 22.4428 152.287 22.9762 151.98C23.5228 151.66 23.9495 151.22 24.2562 150.66C24.5762 150.087 24.7362 149.433 24.7362 148.7C24.7362 147.967 24.5762 147.32 24.2562 146.76C23.9495 146.187 23.5228 145.747 22.9762 145.44C22.4428 145.133 21.8362 144.98 21.1562 144.98C20.4895 144.98 19.8828 145.14 19.3362 145.46C18.8028 145.767 18.3762 146.2 18.0562 146.76C17.7495 147.32 17.5962 147.967 17.5962 148.7C17.5962 149.433 17.7495 150.087 18.0562 150.66C18.3628 151.22 18.7895 151.66 19.3362 151.98C19.8828 152.287 20.4895 152.44 21.1562 152.44ZM39.0457 148.76C39.0457 148.907 39.0324 149.1 39.0057 149.34H30.4057C30.5257 150.273 30.9324 151.027 31.6257 151.6C32.3324 152.16 33.2057 152.44 34.2457 152.44C35.5124 152.44 36.5324 152.013 37.3057 151.16L38.3657 152.4C37.8857 152.96 37.2857 153.387 36.5657 153.68C35.859 153.973 35.0657 154.12 34.1857 154.12C33.0657 154.12 32.0724 153.893 31.2057 153.44C30.339 152.973 29.6657 152.327 29.1857 151.5C28.719 150.673 28.4857 149.74 28.4857 148.7C28.4857 147.673 28.7124 146.747 29.1657 145.92C29.6324 145.093 30.2657 144.453 31.0657 144C31.879 143.533 32.7924 143.3 33.8057 143.3C34.819 143.3 35.719 143.533 36.5057 144C37.3057 144.453 37.9257 145.093 38.3657 145.92C38.819 146.747 39.0457 147.693 39.0457 148.76ZM33.8057 144.92C32.8857 144.92 32.1124 145.2 31.4857 145.76C30.8724 146.32 30.5124 147.053 30.4057 147.96H37.2057C37.099 147.067 36.7324 146.34 36.1057 145.78C35.4924 145.207 34.7257 144.92 33.8057 144.92ZM51.8443 143.4V154H49.9243V145.08H43.9443V154H42.0243V143.4H51.8443ZM60.0995 154.12C59.0461 154.12 58.0995 153.887 57.2595 153.42C56.4195 152.953 55.7595 152.313 55.2795 151.5C54.8128 150.673 54.5795 149.74 54.5795 148.7C54.5795 147.66 54.8128 146.733 55.2795 145.92C55.7595 145.093 56.4195 144.453 57.2595 144C58.0995 143.533 59.0461 143.3 60.0995 143.3C61.1528 143.3 62.0928 143.533 62.9195 144C63.7595 144.453 64.4128 145.093 64.8795 145.92C65.3595 146.733 65.5995 147.66 65.5995 148.7C65.5995 149.74 65.3595 150.673 64.8795 151.5C64.4128 152.313 63.7595 152.953 62.9195 153.42C62.0928 153.887 61.1528 154.12 60.0995 154.12ZM60.0995 152.44C60.7795 152.44 61.3861 152.287 61.9195 151.98C62.4661 151.66 62.8928 151.22 63.1995 150.66C63.5061 150.087 63.6595 149.433 63.6595 148.7C63.6595 147.967 63.5061 147.32 63.1995 146.76C62.8928 146.187 62.4661 145.747 61.9195 145.44C61.3861 145.133 60.7795 144.98 60.0995 144.98C59.4195 144.98 58.8061 145.133 58.2595 145.44C57.7261 145.747 57.2995 146.187 56.9795 146.76C56.6728 147.32 56.5195 147.967 56.5195 148.7C56.5195 149.433 56.6728 150.087 56.9795 150.66C57.2995 151.22 57.7261 151.66 58.2595 151.98C58.8061 152.287 59.4195 152.44 60.0995 152.44ZM79.0738 152.32V156.46H77.2738V154H68.4138V156.46H66.5938V152.32H67.1538C67.8338 152.28 68.3005 151.8 68.5538 150.88C68.8072 149.96 68.9805 148.66 69.0738 146.98L69.2338 143.4H77.4538V152.32H79.0738ZM70.8338 147.12C70.7805 148.453 70.6672 149.56 70.4938 150.44C70.3338 151.307 70.0338 151.933 69.5938 152.32H75.5338V145.08H70.9338L70.8338 147.12ZM85.3551 143.3C86.8218 143.3 87.9418 143.66 88.7151 144.38C89.5018 145.1 89.8951 146.173 89.8951 147.6V154H88.0751V152.6C87.7551 153.093 87.2951 153.473 86.6951 153.74C86.1084 153.993 85.4084 154.12 84.5951 154.12C83.4084 154.12 82.4551 153.833 81.7351 153.26C81.0284 152.687 80.6751 151.933 80.6751 151C80.6751 150.067 81.0151 149.32 81.6951 148.76C82.3751 148.187 83.4551 147.9 84.9351 147.9H87.9751V147.52C87.9751 146.693 87.7351 146.06 87.2551 145.62C86.7751 145.18 86.0684 144.96 85.1351 144.96C84.5084 144.96 83.8951 145.067 83.2951 145.28C82.6951 145.48 82.1884 145.753 81.7751 146.1L80.9751 144.66C81.5218 144.22 82.1751 143.887 82.9351 143.66C83.6951 143.42 84.5018 143.3 85.3551 143.3ZM84.9151 152.64C85.6484 152.64 86.2818 152.48 86.8151 152.16C87.3484 151.827 87.7351 151.36 87.9751 150.76V149.28H85.0151C83.3884 149.28 82.5751 149.827 82.5751 150.92C82.5751 151.453 82.7818 151.873 83.1951 152.18C83.6084 152.487 84.1818 152.64 84.9151 152.64ZM100.572 148.5C101.946 148.847 102.632 149.707 102.632 151.08C102.632 152.013 102.279 152.733 101.572 153.24C100.879 153.747 99.8391 154 98.4524 154H93.3524V143.4H98.2724C99.5258 143.4 100.506 143.64 101.212 144.12C101.919 144.587 102.272 145.253 102.272 146.12C102.272 146.68 102.119 147.167 101.812 147.58C101.519 147.98 101.106 148.287 100.572 148.5ZM95.2324 147.96H98.1124C98.8458 147.96 99.3991 147.827 99.7724 147.56C100.159 147.293 100.352 146.907 100.352 146.4C100.352 145.387 99.6058 144.88 98.1124 144.88H95.2324V147.96ZM98.3124 152.52C99.1124 152.52 99.7124 152.393 100.112 152.14C100.512 151.887 100.712 151.493 100.712 150.96C100.712 150.413 100.526 150.007 100.152 149.74C99.7924 149.473 99.2191 149.34 98.4324 149.34H95.2324V152.52H98.3124ZM109.418 143.3C110.884 143.3 112.004 143.66 112.778 144.38C113.564 145.1 113.958 146.173 113.958 147.6V154H112.138V152.6C111.818 153.093 111.358 153.473 110.758 153.74C110.171 153.993 109.471 154.12 108.658 154.12C107.471 154.12 106.518 153.833 105.798 153.26C105.091 152.687 104.738 151.933 104.738 151C104.738 150.067 105.078 149.32 105.758 148.76C106.438 148.187 107.518 147.9 108.998 147.9H112.038V147.52C112.038 146.693 111.798 146.06 111.318 145.62C110.838 145.18 110.131 144.96 109.198 144.96C108.571 144.96 107.958 145.067 107.358 145.28C106.758 145.48 106.251 145.753 105.838 146.1L105.038 144.66C105.584 144.22 106.238 143.887 106.998 143.66C107.758 143.42 108.564 143.3 109.418 143.3ZM108.978 152.64C109.711 152.64 110.344 152.48 110.878 152.16C111.411 151.827 111.798 151.36 112.038 150.76V149.28H109.078C107.451 149.28 106.638 149.827 106.638 150.92C106.638 151.453 106.844 151.873 107.258 152.18C107.671 152.487 108.244 152.64 108.978 152.64ZM125.315 145.08H121.435V154H119.515V145.08H115.635V143.4H125.315V145.08ZM136.389 148.76C136.389 148.907 136.376 149.1 136.349 149.34H127.749C127.869 150.273 128.276 151.027 128.969 151.6C129.676 152.16 130.549 152.44 131.589 152.44C132.856 152.44 133.876 152.013 134.649 151.16L135.709 152.4C135.229 152.96 134.629 153.387 133.909 153.68C133.203 153.973 132.409 154.12 131.529 154.12C130.409 154.12 129.416 153.893 128.549 153.44C127.683 152.973 127.009 152.327 126.529 151.5C126.063 150.673 125.829 149.74 125.829 148.7C125.829 147.673 126.056 146.747 126.509 145.92C126.976 145.093 127.609 144.453 128.409 144C129.223 143.533 130.136 143.3 131.149 143.3C132.163 143.3 133.063 143.533 133.849 144C134.649 144.453 135.269 145.093 135.709 145.92C136.163 146.747 136.389 147.693 136.389 148.76ZM131.149 144.92C130.229 144.92 129.456 145.2 128.829 145.76C128.216 146.32 127.856 147.053 127.749 147.96H134.549C134.443 147.067 134.076 146.34 133.449 145.78C132.836 145.207 132.069 144.92 131.149 144.92ZM148.292 143.4V154H146.372V145.08H141.812L141.692 147.44C141.626 148.867 141.499 150.06 141.312 151.02C141.126 151.967 140.819 152.727 140.392 153.3C139.966 153.873 139.372 154.16 138.612 154.16C138.266 154.16 137.872 154.1 137.432 153.98L137.552 152.36C137.726 152.4 137.886 152.42 138.032 152.42C138.566 152.42 138.966 152.187 139.232 151.72C139.499 151.253 139.672 150.7 139.752 150.06C139.832 149.42 139.906 148.507 139.972 147.32L140.152 143.4H148.292ZM161.585 148.76C161.585 148.907 161.571 149.1 161.545 149.34H152.945C153.065 150.273 153.471 151.027 154.165 151.6C154.871 152.16 155.745 152.44 156.785 152.44C158.051 152.44 159.071 152.013 159.845 151.16L160.905 152.4C160.425 152.96 159.825 153.387 159.105 153.68C158.398 153.973 157.605 154.12 156.725 154.12C155.605 154.12 154.611 153.893 153.745 153.44C152.878 152.973 152.205 152.327 151.725 151.5C151.258 150.673 151.025 149.74 151.025 148.7C151.025 147.673 151.251 146.747 151.705 145.92C152.171 145.093 152.805 144.453 153.605 144C154.418 143.533 155.331 143.3 156.345 143.3C157.358 143.3 158.258 143.533 159.045 144C159.845 144.453 160.465 145.093 160.905 145.92C161.358 146.747 161.585 147.693 161.585 148.76ZM156.345 144.92C155.425 144.92 154.651 145.2 154.025 145.76C153.411 146.32 153.051 147.053 152.945 147.96H159.745C159.638 147.067 159.271 146.34 158.645 145.78C158.031 145.207 157.265 144.92 156.345 144.92ZM164.563 143.4H166.483V151.12L172.983 143.4H174.723V154H172.803V146.28L166.323 154H164.563V143.4ZM169.523 142.02C168.537 142.02 167.77 141.787 167.223 141.32C166.677 140.84 166.397 140.153 166.383 139.26H167.683C167.697 139.753 167.863 140.153 168.183 140.46C168.517 140.753 168.957 140.9 169.503 140.9C170.05 140.9 170.49 140.753 170.823 140.46C171.157 140.153 171.33 139.753 171.343 139.26H172.683C172.67 140.153 172.383 140.84 171.823 141.32C171.263 141.787 170.497 142.02 169.523 142.02Z" fill="black"/>
<defs>
<linearGradient id="paint0_linear_64_4118" x1="0.301025" y1="52.6605" x2="116.301" y2="52.6605" gradientUnits="userSpaceOnUse">
<stop stop-color="#F7941D"/>
<stop offset="1" stop-color="#27AAE1"/>
</linearGradient>
</defs>
</svg>
