<svg width="318" height="141" viewBox="0 0 318 141" fill="none" xmlns="http://www.w3.org/2000/svg">
<path d="M26.574 22.9605H28.574V20.9605H26.574V22.9605ZM26.574 83.1605V85.1605H28.574V83.1605H26.574ZM12.642 83.1605H10.642V85.1605H12.642V83.1605ZM12.642 34.1405H14.642V32.1405H12.642V34.1405ZM0.602 34.1405H-1.398V36.1405H0.602V34.1405ZM0.602 22.9605V20.9605H-1.398V22.9605H0.602ZM24.574 22.9605V83.1605H28.574V22.9605H24.574ZM26.574 81.1605H12.642V85.1605H26.574V81.1605ZM14.642 83.1605V34.1405H10.642V83.1605H14.642ZM12.642 32.1405H0.602V36.1405H12.642V32.1405ZM2.602 34.1405V22.9605H-1.398V34.1405H2.602ZM0.602 24.9605H26.574V20.9605H0.602V24.9605ZM100.328 70.5185V72.5185H102.328V70.5185H100.328ZM90.5237 70.5185V68.5185H88.5237V70.5185H90.5237ZM90.5237 83.1605V85.1605H92.5237V83.1605H90.5237ZM76.9357 83.1605H74.9357V85.1605H76.9357V83.1605ZM76.9357 70.5185H78.9357V68.5185H76.9357V70.5185ZM44.5137 70.5185H42.5137V72.5185H44.5137V70.5185ZM44.5137 61.1445L42.9085 59.9515L42.5137 60.4827V61.1445H44.5137ZM72.8937 22.9605V20.9605H71.8883L71.2885 21.7675L72.8937 22.9605ZM87.5137 22.9605L89.1315 24.1364L91.4399 20.9605H87.5137V22.9605ZM61.1977 59.1665L59.5799 57.9906L57.2716 61.1665H61.1977V59.1665ZM77.3657 59.1665V61.1665H79.3657V59.1665H77.3657ZM77.3657 47.9005V45.9005H75.3657V47.9005H77.3657ZM90.5237 47.9005H92.5237V45.9005H90.5237V47.9005ZM90.5237 59.1665H88.5237V61.1665H90.5237V59.1665ZM100.328 59.1665H102.328V57.1665H100.328V59.1665ZM100.328 68.5185H90.5237V72.5185H100.328V68.5185ZM88.5237 70.5185V83.1605H92.5237V70.5185H88.5237ZM90.5237 81.1605H76.9357V85.1605H90.5237V81.1605ZM78.9357 83.1605V70.5185H74.9357V83.1605H78.9357ZM76.9357 68.5185H44.5137V72.5185H76.9357V68.5185ZM46.5137 70.5185V61.1445H42.5137V70.5185H46.5137ZM46.1189 62.3376L74.4989 24.1536L71.2885 21.7675L42.9085 59.9515L46.1189 62.3376ZM72.8937 24.9605H87.5137V20.9605H72.8937V24.9605ZM85.8959 21.7846L59.5799 57.9906L62.8155 60.3424L89.1315 24.1364L85.8959 21.7846ZM61.1977 61.1665H77.3657V57.1665H61.1977V61.1665ZM79.3657 59.1665V47.9005H75.3657V59.1665H79.3657ZM77.3657 49.9005H90.5237V45.9005H77.3657V49.9005ZM88.5237 47.9005V59.1665H92.5237V47.9005H88.5237ZM90.5237 61.1665H100.328V57.1665H90.5237V61.1665ZM98.3277 59.1665V70.5185H102.328V59.1665H98.3277ZM192.318 22.9605H194.318V20.9605H192.318V22.9605ZM192.318 31.9905L194.151 32.7914L194.318 32.4084V31.9905H192.318ZM169.958 83.1605V85.1605H171.267L171.791 83.9613L169.958 83.1605ZM154.822 83.1605L152.993 82.3521L151.752 85.1605H154.822V83.1605ZM176.408 34.3125L178.238 35.1209L179.479 32.3125H176.408V34.3125ZM156.456 34.3125V32.3125H154.456V34.3125H156.456ZM156.456 44.1165V46.1165H158.456V44.1165H156.456ZM144.072 44.1165H142.072V46.1165H144.072V44.1165ZM144.072 22.9605V20.9605H142.072V22.9605H144.072ZM190.318 22.9605V31.9905H194.318V22.9605H190.318ZM190.486 31.1897L168.126 82.3597L171.791 83.9613L194.151 32.7914L190.486 31.1897ZM169.958 81.1605H154.822V85.1605H169.958V81.1605ZM156.652 83.9689L178.238 35.1209L174.579 33.5041L152.993 82.3521L156.652 83.9689ZM176.408 32.3125H156.456V36.3125H176.408V32.3125ZM154.456 34.3125V44.1165H158.456V34.3125H154.456ZM156.456 42.1165H144.072V46.1165H156.456V42.1165ZM146.072 44.1165V22.9605H142.072V44.1165H146.072ZM144.072 24.9605H192.318V20.9605H144.072V24.9605ZM247.626 29.6685L246.156 31.0244L246.164 31.0326L247.626 29.6685ZM250.894 69.3145L249.127 68.3787L249.122 68.3869L249.118 68.3951L250.894 69.3145ZM240.144 80.4085L241.099 82.166L240.144 80.4085ZM214.86 83.1605L214.366 85.0985L214.384 85.1031L214.402 85.1074L214.86 83.1605ZM207.378 80.0645L205.592 79.1641L204.779 80.7773L206.301 81.7499L207.378 80.0645ZM212.538 69.8305L213.67 68.1815L211.783 66.8864L210.752 68.9301L212.538 69.8305ZM235.93 68.3685L237.344 69.7827L237.351 69.776L237.358 69.7692L235.93 68.3685ZM240.746 55.2965L242.745 55.3773L242.951 50.2631L239.332 53.8823L240.746 55.2965ZM215.29 58.3925L216.172 56.5972L215.29 58.3925ZM207.808 51.8565L206.124 52.9346L206.129 52.9424L206.134 52.9501L207.808 51.8565ZM208.066 31.3885L206.397 30.2864L208.066 31.3885ZM216.236 24.4225L217.082 26.2349L217.089 26.2319L217.095 26.2288L216.236 24.4225ZM236.274 47.8145L237.594 49.3169L237.597 49.3142L236.274 47.8145ZM236.36 34.8285L235.017 36.3105L235.029 36.3208L235.04 36.3308L236.36 34.8285ZM221.396 34.7425L220.102 33.2175L220.091 33.2273L220.079 33.2374L221.396 34.7425ZM221.396 47.9005L220.053 49.3825L220.077 49.4044L220.102 49.4255L221.396 47.9005ZM227.846 23.9285C235.837 23.9285 241.851 26.3565 246.156 31.0244L249.096 28.3126C243.884 22.6605 236.711 19.9285 227.846 19.9285V23.9285ZM246.164 31.0326C250.464 35.6438 252.764 42.4503 252.764 51.7705H256.764C256.764 41.8267 254.306 33.8986 249.089 28.3045L246.164 31.0326ZM252.764 51.7705C252.764 58.3432 251.522 63.8543 249.127 68.3787L252.662 70.2503C255.427 65.0281 256.764 58.8432 256.764 51.7705H252.764ZM249.118 68.3951C246.772 72.9277 243.468 76.3269 239.19 78.6511L241.099 82.166C246.108 79.4448 249.971 75.448 252.67 70.2339L249.118 68.3951ZM239.19 78.6511C234.88 80.9921 229.857 82.1925 224.062 82.1925V86.1925C230.423 86.1925 236.121 84.8703 241.099 82.166L239.19 78.6511ZM224.062 82.1925C220.995 82.1925 218.082 81.864 215.318 81.2137L214.402 85.1074C217.486 85.833 220.708 86.1925 224.062 86.1925V82.1925ZM215.354 81.2225C212.591 80.5181 210.303 79.56 208.455 78.3791L206.301 81.7499C208.581 83.2063 211.282 84.3123 214.366 85.0985L215.354 81.2225ZM209.164 80.965L214.324 70.7309L210.752 68.9301L205.592 79.1641L209.164 80.965ZM211.407 71.4795C214.749 73.7734 218.931 74.8405 223.804 74.8405V70.8405C219.504 70.8405 216.175 69.9009 213.67 68.1815L211.407 71.4795ZM223.804 74.8405C229.318 74.8405 233.912 73.2157 237.344 69.7827L234.516 66.9543C231.986 69.484 228.496 70.8405 223.804 70.8405V74.8405ZM237.358 69.7692C240.789 66.2722 242.502 61.3802 242.745 55.3773L238.748 55.2158C238.532 60.5649 237.034 64.3875 234.503 66.9678L237.358 69.7692ZM239.332 53.8823C236.182 57.0318 231.754 58.7145 225.782 58.7145V62.7145C232.539 62.7145 238.086 60.7852 242.16 56.7107L239.332 53.8823ZM225.782 58.7145C222.217 58.7145 219.026 57.9983 216.172 56.5972L214.409 60.1879C217.861 61.8827 221.664 62.7145 225.782 62.7145V58.7145ZM216.172 56.5972C213.325 55.1998 211.112 53.2569 209.483 50.7629L206.134 52.9501C208.174 56.0748 210.949 58.4892 214.409 60.1879L216.172 56.5972ZM209.493 50.7784C207.884 48.2639 207.056 45.3487 207.056 41.9665H203.056C203.056 46.0376 204.064 49.7158 206.124 52.9346L209.493 50.7784ZM207.056 41.9665C207.056 38.3034 207.966 35.1692 209.735 32.4906L206.397 30.2864C204.153 33.6852 203.056 37.6029 203.056 41.9665H207.056ZM209.735 32.4906C211.529 29.7736 213.962 27.691 217.082 26.2349L215.39 22.6102C211.631 24.3647 208.616 26.9261 206.397 30.2864L209.735 32.4906ZM217.095 26.2288C220.299 24.7055 223.872 23.9285 227.846 23.9285V19.9285C223.335 19.9285 219.168 20.8142 215.378 22.6163L217.095 26.2288ZM228.878 52.3085C232.298 52.3085 235.266 51.3635 237.594 49.3169L234.954 46.3122C233.499 47.5909 231.536 48.3085 228.878 48.3085V52.3085ZM237.597 49.3142C239.984 47.2083 241.198 44.4802 241.198 41.2785H237.198C237.198 43.3516 236.463 44.9808 234.951 46.3148L237.597 49.3142ZM241.198 41.2785C241.198 38.0968 240.027 35.3884 237.68 33.3262L235.04 36.3308C236.477 37.5939 237.198 39.1856 237.198 41.2785H241.198ZM237.703 33.3465C235.396 31.2556 232.308 30.3345 228.706 30.3345V34.3345C231.64 34.3345 233.655 35.0761 235.017 36.3105L237.703 33.3465ZM228.706 30.3345C225.351 30.3345 222.425 31.2466 220.102 33.2175L222.69 36.2675C224.151 35.0278 226.099 34.3345 228.706 34.3345V30.3345ZM220.079 33.2374C217.752 35.2738 216.644 38.0326 216.644 41.2785H220.644C220.644 39.0204 221.371 37.4219 222.713 36.2477L220.079 33.2374ZM216.644 41.2785C216.644 44.525 217.751 47.2961 220.053 49.3825L222.739 46.4185C221.372 45.1796 220.644 43.536 220.644 41.2785H216.644ZM220.102 49.4255C222.438 51.4077 225.429 52.3085 228.878 52.3085V48.3085C226.135 48.3085 224.138 47.604 222.69 46.3755L220.102 49.4255ZM309.006 50.6525L307.717 52.1818L307.728 52.1907L309.006 50.6525ZM312.36 74.3025L314.063 75.3507L314.068 75.3435L314.072 75.3363L312.36 74.3025ZM303.932 81.5265L304.793 83.3318L304.805 83.3261L303.932 81.5265ZM277.53 82.5585L276.988 84.4836L277.004 84.4881L277.02 84.4923L277.53 82.5585ZM267.124 77.7425L265.347 76.8252L264.556 78.3578L265.955 79.3656L267.124 77.7425ZM272.628 67.0785L273.828 65.4785L271.936 64.0593L270.851 66.1612L272.628 67.0785ZM280.54 71.1205L279.919 73.0215L279.935 73.0269L279.952 73.0321L280.54 71.1205ZM297.998 70.4325L299.129 72.082L297.998 70.4325ZM297.826 58.8225L296.749 60.5079L296.76 60.5146L296.77 60.5211L297.826 58.8225ZM271.596 56.8445L269.604 56.6625L269.405 58.8445H271.596V56.8445ZM274.692 22.9605V20.9605H272.866L272.7 22.7785L274.692 22.9605ZM311.414 22.9605H313.414V20.9605H311.414V22.9605ZM311.414 34.1405V36.1405H313.414V34.1405H311.414ZM286.302 34.1405V32.1405H284.461L284.309 33.9757L286.302 34.1405ZM285.356 45.5785L283.363 45.4137L283.184 47.5785H285.356V45.5785ZM290.258 47.5785C298.544 47.5785 304.229 49.2416 307.717 52.1818L310.295 49.1233C305.757 45.2982 298.943 43.5785 290.258 43.5785V47.5785ZM307.728 52.1907C311.305 55.1631 313.112 59.1099 313.112 64.2405H317.112C317.112 58.0191 314.849 52.9073 310.284 49.1143L307.728 52.1907ZM313.112 64.2405C313.112 67.5584 312.288 70.5529 310.648 73.2688L314.072 75.3363C316.102 71.9748 317.112 68.2613 317.112 64.2405H313.112ZM310.657 73.2543C309.059 75.851 306.57 78.0247 303.06 79.7269L304.805 83.3261C308.862 81.359 311.992 78.7168 314.063 75.3507L310.657 73.2543ZM303.071 79.7213C299.687 81.3351 295.387 82.1925 290.086 82.1925V86.1925C295.793 86.1925 300.723 85.2726 304.793 83.3317L303.071 79.7213ZM290.086 82.1925C286.017 82.1925 282.003 81.6704 278.04 80.6247L277.02 84.4923C281.313 85.6253 285.67 86.1925 290.086 86.1925V82.1925ZM278.072 80.6334C274.183 79.5379 270.937 78.023 268.293 76.1195L265.955 79.3656C269.045 81.59 272.735 83.2858 276.988 84.4836L278.072 80.6334ZM268.901 78.6598L274.405 67.9958L270.851 66.1612L265.347 76.8252L268.901 78.6598ZM271.428 68.6785C273.912 70.5416 276.749 71.9852 279.919 73.0215L281.162 69.2195C278.369 68.3065 275.931 67.0554 273.828 65.4785L271.428 68.6785ZM279.952 73.0321C283.126 74.0087 286.392 74.4965 289.742 74.4965V70.4965C286.786 70.4965 283.917 70.067 281.128 69.209L279.952 73.0321ZM289.742 74.4965C293.474 74.4965 296.673 73.7661 299.129 72.082L296.867 68.7831C295.31 69.8509 293.005 70.4965 289.742 70.4965V74.4965ZM299.129 72.082C301.688 70.3272 303.008 67.7848 303.008 64.6705H299.008C299.008 66.4869 298.321 67.7859 296.867 68.7831L299.129 72.082ZM303.008 64.6705C303.008 61.4269 301.614 58.822 298.882 57.124L296.77 60.5211C298.281 61.4604 299.008 62.7542 299.008 64.6705H303.008ZM298.903 57.1371C296.318 55.4857 292.193 54.8445 286.99 54.8445V58.8445C292.107 58.8445 295.206 59.522 296.749 60.5079L298.903 57.1371ZM286.99 54.8445H271.596V58.8445H286.99V54.8445ZM273.588 57.0265L276.684 23.1425L272.7 22.7785L269.604 56.6625L273.588 57.0265ZM274.692 24.9605H311.414V20.9605H274.692V24.9605ZM309.414 22.9605V34.1405H313.414V22.9605H309.414ZM311.414 32.1405H286.302V36.1405H311.414V32.1405ZM284.309 33.9757L283.363 45.4137L287.349 45.7434L288.295 34.3054L284.309 33.9757ZM285.356 47.5785H290.258V43.5785H285.356V47.5785Z" fill="url(#paint0_linear_64_4121)"/>
<path d="M10.9 123.74C11.8467 123.967 12.56 124.373 13.04 124.96C13.5333 125.533 13.78 126.273 13.78 127.18C13.78 128.393 13.3333 129.333 12.44 130C11.56 130.667 10.2733 131 8.58 131H2.18V117H8.2C9.73333 117 10.9267 117.313 11.78 117.94C12.6467 118.553 13.08 119.44 13.08 120.6C13.08 121.36 12.8867 122.007 12.5 122.54C12.1267 123.073 11.5933 123.473 10.9 123.74ZM4.16 123.16H8.06C9.03333 123.16 9.77333 122.967 10.28 122.58C10.8 122.193 11.06 121.627 11.06 120.88C11.06 120.133 10.8 119.567 10.28 119.18C9.76 118.78 9.02 118.58 8.06 118.58H4.16V123.16ZM8.54 129.42C10.6867 129.42 11.76 128.62 11.76 127.02C11.76 126.22 11.4867 125.633 10.94 125.26C10.4067 124.873 9.60667 124.68 8.54 124.68H4.16V129.42H8.54ZM21.5814 124C22.9147 124.013 23.9347 124.32 24.6414 124.92C25.3481 125.52 25.7014 126.367 25.7014 127.46C25.7014 128.607 25.3147 129.493 24.5414 130.12C23.7814 130.733 22.6881 131.033 21.2614 131.02L16.8014 131V120.4H18.7214V123.98L21.5814 124ZM27.2814 120.4H29.2014V131H27.2814V120.4ZM21.1214 129.56C21.9881 129.573 22.6414 129.4 23.0814 129.04C23.5347 128.68 23.7614 128.147 23.7614 127.44C23.7614 126.747 23.5414 126.24 23.1014 125.92C22.6614 125.6 22.0014 125.433 21.1214 125.42L18.7214 125.38V129.54L21.1214 129.56ZM42.7542 120.4V131H40.8342V122.08H34.8542V131H32.9342V120.4H42.7542ZM55.9294 120.4L50.7894 132.06C50.336 133.14 49.8027 133.9 49.1894 134.34C48.5894 134.78 47.8627 135 47.0094 135C46.4894 135 45.9827 134.913 45.4894 134.74C45.0094 134.58 44.6094 134.34 44.2894 134.02L45.1094 132.58C45.656 133.1 46.2894 133.36 47.0094 133.36C47.476 133.36 47.8627 133.233 48.1694 132.98C48.4894 132.74 48.776 132.32 49.0294 131.72L49.3694 130.98L44.6894 120.4H46.6894L50.3894 128.88L54.0494 120.4H55.9294ZM62.2222 131.12C61.1422 131.12 60.1755 130.887 59.3222 130.42C58.4822 129.953 57.8222 129.313 57.3422 128.5C56.8622 127.673 56.6222 126.74 56.6222 125.7C56.6222 124.66 56.8622 123.733 57.3422 122.92C57.8222 122.093 58.4822 121.453 59.3222 121C60.1755 120.533 61.1422 120.3 62.2222 120.3C63.1822 120.3 64.0355 120.493 64.7822 120.88C65.5422 121.267 66.1289 121.827 66.5422 122.56L65.0822 123.5C64.7489 122.993 64.3355 122.613 63.8422 122.36C63.3489 122.107 62.8022 121.98 62.2022 121.98C61.5089 121.98 60.8822 122.133 60.3222 122.44C59.7755 122.747 59.3422 123.187 59.0222 123.76C58.7155 124.32 58.5622 124.967 58.5622 125.7C58.5622 126.447 58.7155 127.107 59.0222 127.68C59.3422 128.24 59.7755 128.673 60.3222 128.98C60.8822 129.287 61.5089 129.44 62.2022 129.44C62.8022 129.44 63.3489 129.313 63.8422 129.06C64.3355 128.807 64.7489 128.427 65.0822 127.92L66.5422 128.84C66.1289 129.573 65.5422 130.14 64.7822 130.54C64.0355 130.927 63.1822 131.12 62.2222 131.12ZM73.148 126.52H70.948V131H69.028V120.4H70.948V124.88H73.188L76.628 120.4H78.688L74.668 125.5L78.968 131H76.708L73.148 126.52ZM80.9811 120.4H82.9011V124.9H88.9411V120.4H90.8611V131H88.9411V126.56H82.9011V131H80.9811V120.4ZM94.5944 120.4H96.5144V128.12L103.014 120.4H104.754V131H102.834V123.28L96.3544 131H94.5944V120.4ZM112.601 126.52H110.401V131H108.481V120.4H110.401V124.88H112.641L116.081 120.4H118.141L114.121 125.5L118.421 131H116.161L112.601 126.52ZM124.623 131.12C123.569 131.12 122.623 130.887 121.783 130.42C120.943 129.953 120.283 129.313 119.803 128.5C119.336 127.673 119.103 126.74 119.103 125.7C119.103 124.66 119.336 123.733 119.803 122.92C120.283 122.093 120.943 121.453 121.783 121C122.623 120.533 123.569 120.3 124.623 120.3C125.676 120.3 126.616 120.533 127.443 121C128.283 121.453 128.936 122.093 129.403 122.92C129.883 123.733 130.123 124.66 130.123 125.7C130.123 126.74 129.883 127.673 129.403 128.5C128.936 129.313 128.283 129.953 127.443 130.42C126.616 130.887 125.676 131.12 124.623 131.12ZM124.623 129.44C125.303 129.44 125.909 129.287 126.443 128.98C126.989 128.66 127.416 128.22 127.723 127.66C128.029 127.087 128.183 126.433 128.183 125.7C128.183 124.967 128.029 124.32 127.723 123.76C127.416 123.187 126.989 122.747 126.443 122.44C125.909 122.133 125.303 121.98 124.623 121.98C123.943 121.98 123.329 122.133 122.783 122.44C122.249 122.747 121.823 123.187 121.503 123.76C121.196 124.32 121.043 124.967 121.043 125.7C121.043 126.433 121.196 127.087 121.503 127.66C121.823 128.22 122.249 128.66 122.783 128.98C123.329 129.287 123.943 129.44 124.623 129.44ZM140.115 125.5C141.488 125.847 142.175 126.707 142.175 128.08C142.175 129.013 141.822 129.733 141.115 130.24C140.422 130.747 139.382 131 137.995 131H132.895V120.4H137.815C139.068 120.4 140.048 120.64 140.755 121.12C141.462 121.587 141.815 122.253 141.815 123.12C141.815 123.68 141.662 124.167 141.355 124.58C141.062 124.98 140.648 125.287 140.115 125.5ZM134.775 124.96H137.655C138.388 124.96 138.942 124.827 139.315 124.56C139.702 124.293 139.895 123.907 139.895 123.4C139.895 122.387 139.148 121.88 137.655 121.88H134.775V124.96ZM137.855 129.52C138.655 129.52 139.255 129.393 139.655 129.14C140.055 128.887 140.255 128.493 140.255 127.96C140.255 127.413 140.068 127.007 139.695 126.74C139.335 126.473 138.762 126.34 137.975 126.34H134.775V129.52H137.855Z" fill="black"/>
<defs>
<linearGradient id="paint0_linear_64_4121" x1="0" y1="52.6605" x2="318" y2="52.6605" gradientUnits="userSpaceOnUse">
<stop stop-color="#F7941D"/>
<stop offset="1" stop-color="#27AAE1"/>
</linearGradient>
</defs>
</svg>
