<svg width="188" height="141" viewBox="0 0 188 141" fill="none" xmlns="http://www.w3.org/2000/svg">
<path d="M42.828 47.7285L43.7094 45.9332H43.7093L42.828 47.7285ZM50.31 54.3505L48.6255 55.4286L48.6304 55.4364L48.6355 55.4441L50.31 54.3505ZM50.052 74.7325L48.3831 73.6304L50.052 74.7325ZM41.796 81.7845L42.6418 83.5969L42.6483 83.5939L42.6547 83.5908L41.796 81.7845ZM10.492 76.4525L9.02177 77.8084L10.492 76.4525ZM7.224 36.8065L5.45642 35.8707L7.224 36.8065ZM17.974 25.7125L17.0193 23.955L17.0102 23.9601L17.974 25.7125ZM43.258 23.0465L42.764 24.9845L42.7861 24.9902L42.8083 24.9953L43.258 23.0465ZM50.826 26.0565L52.6118 26.9569L53.4252 25.3438L51.9028 24.3711L50.826 26.0565ZM45.666 36.2905L44.5492 37.9497L46.4308 39.2161L47.4518 37.1909L45.666 36.2905ZM22.274 37.7525L23.6882 39.1667L22.274 37.7525ZM17.458 50.7385L15.4596 50.6578L15.253 55.772L18.8722 52.1527L17.458 50.7385ZM36.722 71.3785L35.428 69.8535L35.4164 69.8633L35.405 69.8734L36.722 71.3785ZM36.722 58.3065L35.379 59.7885L35.4032 59.8104L35.428 59.8315L36.722 58.3065ZM21.844 58.3925L23.1419 59.9142L23.1547 59.9033L23.1672 59.8922L21.844 58.3925ZM21.758 71.2925L23.0782 69.7902H23.0782L21.758 71.2925ZM32.336 47.4065C35.9008 47.4065 39.0925 48.1227 41.9467 49.5239L43.7093 45.9332C40.2568 44.2383 36.4539 43.4065 32.336 43.4065V47.4065ZM41.9467 49.5239C44.7828 50.9161 46.9945 52.8802 48.6255 55.4286L51.9945 53.2724C49.9562 50.0875 47.1799 47.6369 43.7094 45.9332L41.9467 49.5239ZM48.6355 55.4441C50.2346 57.8928 51.062 60.7717 51.062 64.1545H55.062C55.062 60.084 54.0547 56.4269 51.9845 53.2569L48.6355 55.4441ZM51.062 64.1545C51.062 67.8176 50.1519 70.9518 48.3831 73.6304L51.7209 75.8346C53.9654 72.4359 55.062 68.5181 55.062 64.1545H51.062ZM48.3831 73.6304C46.5901 76.3454 44.1272 78.4618 40.9373 79.9783L42.6547 83.5908C46.4595 81.782 49.5005 79.1969 51.7209 75.8346L48.3831 73.6304ZM40.9502 79.9722C37.8047 81.4401 34.257 82.1925 30.272 82.1925V86.1925C34.7723 86.1925 38.9073 85.3396 42.6418 83.5969L40.9502 79.9722ZM30.272 82.1925C22.281 82.1925 16.2671 79.7645 11.9622 75.0966L9.02177 77.8084C14.2343 83.4605 21.407 86.1925 30.272 86.1925V82.1925ZM11.9622 75.0966C7.65181 70.4227 5.354 63.6079 5.354 54.3505H1.354C1.354 64.2425 3.81486 72.1624 9.02177 77.8084L11.9622 75.0966ZM5.354 54.3505C5.354 47.7779 6.59627 42.2668 8.99158 37.7423L5.45642 35.8707C2.69173 41.0929 1.354 47.2778 1.354 54.3505H5.354ZM8.99158 37.7423C11.3993 33.1944 14.7117 29.7893 18.9378 27.465L17.0102 23.9601C12.063 26.6811 8.2087 30.672 5.45642 35.8707L8.99158 37.7423ZM18.9287 27.47C23.2383 25.1289 28.2617 23.9285 34.056 23.9285V19.9285C27.6956 19.9285 21.9977 21.2508 17.0193 23.9551L18.9287 27.47ZM34.056 23.9285C37.1107 23.9285 40.0114 24.2829 42.764 24.9845L43.752 21.1085C40.6566 20.3195 37.4227 19.9285 34.056 19.9285V23.9285ZM42.8083 24.9953C45.6203 25.6442 47.9188 26.5725 49.7492 27.7419L51.9028 24.3711C49.6052 22.9032 46.8584 21.8248 43.7077 21.0977L42.8083 24.9953ZM49.0402 25.1561L43.8802 35.3901L47.4518 37.1909L52.6118 26.9569L49.0402 25.1561ZM46.7828 34.6313C43.3948 32.351 39.2236 31.2805 34.4 31.2805V35.2805C38.6351 35.2805 41.9746 36.2167 44.5492 37.9497L46.7828 34.6313ZM34.4 31.2805C28.8859 31.2805 24.2927 32.9054 20.8598 36.3383L23.6882 39.1667C26.2179 36.637 29.7087 35.2805 34.4 35.2805V31.2805ZM20.8598 36.3383C17.4149 39.7832 15.7021 44.657 15.4596 50.6578L19.4564 50.8193C19.6726 45.468 21.1704 41.6845 23.6882 39.1667L20.8598 36.3383ZM18.8722 52.1527C21.9585 49.0664 26.3541 47.4065 32.336 47.4065V43.4065C25.5899 43.4065 20.0668 45.3013 16.0438 49.3243L18.8722 52.1527ZM29.498 75.7865C32.8511 75.7865 35.7631 74.8751 38.039 72.8837L35.405 69.8734C34.0116 71.0926 32.1075 71.7865 29.498 71.7865V75.7865ZM38.016 72.9035C40.4081 70.8739 41.56 68.1097 41.56 64.8425H37.56C37.56 67.0793 36.8199 68.6725 35.428 69.8535L38.016 72.9035ZM41.56 64.8425C41.56 61.5753 40.4081 58.8112 38.016 56.7815L35.428 59.8315C36.8199 61.0125 37.56 62.6057 37.56 64.8425H41.56ZM38.065 56.8245C35.7767 54.7508 32.7891 53.8125 29.326 53.8125V57.8125C32.0549 57.8125 33.9979 58.5369 35.379 59.7885L38.065 56.8245ZM29.326 53.8125C25.8872 53.8125 22.8959 54.7971 20.5208 56.8928L23.1672 59.8922C24.6907 58.548 26.6875 57.8125 29.326 57.8125V53.8125ZM20.5461 56.8709C18.1365 58.9261 16.92 61.6394 16.92 64.8425H20.92C20.92 62.771 21.6529 61.1842 23.1419 59.9142L20.5461 56.8709ZM16.92 64.8425C16.92 68.0243 18.0911 70.7326 20.4378 72.7949L23.0782 69.7902C21.6409 68.5271 20.92 66.9354 20.92 64.8425H16.92ZM20.4378 72.7949C22.7924 74.8641 25.892 75.7865 29.498 75.7865V71.7865C26.568 71.7865 24.5076 71.0463 23.0782 69.7902L20.4378 72.7949ZM78.7518 80.4945L79.8207 78.8041L78.7518 80.4945ZM69.5498 69.8305L67.7352 70.6714L67.7414 70.6848L67.7478 70.6982L69.5498 69.8305ZM69.5498 36.3765L67.7437 35.5175L67.7392 35.5271L69.5498 36.3765ZM78.7518 25.6265L79.8207 27.3169V27.3169L78.7518 25.6265ZM105.412 25.6265L104.343 27.3169V27.3169L105.412 25.6265ZM114.528 36.3765L112.713 37.2174L112.719 37.2308L112.726 37.2442L114.528 36.3765ZM114.528 69.8305L112.722 68.9715L112.717 68.9811L114.528 69.8305ZM105.412 80.4945L104.343 78.8041L105.412 80.4945ZM100.682 67.6805L99.0224 66.5642L99.0153 66.5746L99.0084 66.5852L100.682 67.6805ZM100.682 38.4405L99.0084 39.5358L99.0153 39.5464L99.0224 39.5569L100.682 38.4405ZM83.4818 38.4405L81.8224 37.3242L81.8153 37.3346L81.8084 37.3452L83.4818 38.4405ZM83.4818 67.6805L81.8084 68.7758L81.8153 68.7864L81.8224 68.7969L83.4818 67.6805ZM92.0818 82.1925C87.4402 82.1925 83.3735 81.0508 79.8207 78.8041L77.6829 82.1849C81.9274 84.869 86.7474 86.1925 92.0818 86.1925V82.1925ZM79.8207 78.8041C76.2749 76.5619 73.445 73.3102 71.3518 68.9629L67.7478 70.6982C70.1267 75.6388 73.4314 79.4965 77.6829 82.1849L79.8207 78.8041ZM71.3644 68.9896C69.3345 64.6091 68.2818 59.3194 68.2818 53.0605H64.2818C64.2818 59.759 65.4078 65.6492 67.7352 70.6714L71.3644 68.9896ZM68.2818 53.0605C68.2818 46.8006 69.3348 41.5438 71.3605 37.226L67.7392 35.5271C65.4075 40.4972 64.2818 46.3631 64.2818 53.0605H68.2818ZM71.3559 37.2355C73.4511 32.8303 76.2811 29.5552 79.8207 27.3169L77.6829 23.9361C73.4251 26.6285 70.1205 30.5201 67.7437 35.5175L71.3559 37.2355ZM79.8207 27.3169C83.3735 25.0703 87.4402 23.9285 92.0818 23.9285V19.9285C86.7474 19.9285 81.9274 21.2521 77.6829 23.9361L79.8207 27.3169ZM92.0818 23.9285C96.7234 23.9285 100.79 25.0703 104.343 27.3169L106.481 23.9361C102.236 21.2521 97.4162 19.9285 92.0818 19.9285V23.9285ZM104.343 27.3169C107.877 29.552 110.676 32.8207 112.713 37.2174L116.342 35.5356C114.023 30.5297 110.744 26.6317 106.481 23.9361L104.343 27.3169ZM112.726 37.2442C114.802 41.5571 115.882 46.8072 115.882 53.0605H119.882C119.882 46.3565 118.725 40.4839 116.33 35.5089L112.726 37.2442ZM115.882 53.0605C115.882 59.3128 114.803 64.5959 112.722 68.9715L116.334 70.6895C118.725 65.6625 119.882 59.7655 119.882 53.0605H115.882ZM112.717 68.9811C110.682 73.3198 107.884 76.565 104.343 78.8041L106.481 82.1849C110.737 79.4933 114.017 75.6293 116.338 70.68L112.717 68.9811ZM104.343 78.8041C100.79 81.0508 96.7234 82.1925 92.0818 82.1925V86.1925C97.4162 86.1925 102.236 84.869 106.481 82.1849L104.343 78.8041ZM92.0818 74.4105C96.4476 74.4105 99.9338 72.4752 102.355 68.7758L99.0084 66.5852C97.3018 69.1925 95.0547 70.4105 92.0818 70.4105V74.4105ZM102.341 68.7969C104.795 65.1499 105.864 59.7932 105.864 53.0605H101.864C101.864 59.5145 100.812 63.9045 99.0224 66.5642L102.341 68.7969ZM105.864 53.0605C105.864 46.3278 104.795 40.9711 102.341 37.3242L99.0224 39.5569C100.812 42.2166 101.864 46.6066 101.864 53.0605H105.864ZM102.355 37.3452C99.9338 33.6458 96.4476 31.7105 92.0818 31.7105V35.7105C95.0547 35.7105 97.3018 36.9286 99.0084 39.5358L102.355 37.3452ZM92.0818 31.7105C87.7637 31.7105 84.2922 33.6528 81.8224 37.3242L85.1413 39.5569C86.9141 36.9216 89.1759 35.7105 92.0818 35.7105V31.7105ZM81.8084 37.3452C79.4247 40.987 78.3858 46.3342 78.3858 53.0605H82.3858C82.3858 46.6002 83.411 42.2007 85.1552 39.5358L81.8084 37.3452ZM78.3858 53.0605C78.3858 59.7869 79.4247 65.134 81.8084 68.7758L85.1552 66.5852C83.411 63.9204 82.3858 59.5209 82.3858 53.0605H78.3858ZM81.8224 68.7969C84.2922 72.4682 87.7637 74.4105 92.0818 74.4105V70.4105C89.1759 70.4105 86.9141 69.1995 85.1413 66.5642L81.8224 68.7969ZM145.291 80.4945L146.36 78.8041L145.291 80.4945ZM136.089 69.8305L134.274 70.6714L134.281 70.6848L134.287 70.6982L136.089 69.8305ZM136.089 36.3765L134.283 35.5175L134.278 35.5271L136.089 36.3765ZM145.291 25.6265L146.36 27.3169V27.3169L145.291 25.6265ZM171.951 25.6265L170.882 27.3169V27.3169L171.951 25.6265ZM181.067 36.3765L179.252 37.2174L179.259 37.2308L179.265 37.2442L181.067 36.3765ZM181.067 69.8305L179.261 68.9715L179.256 68.9811L181.067 69.8305ZM171.951 80.4945L170.882 78.8041L171.951 80.4945ZM167.221 67.6805L165.562 66.5642L165.554 66.5746L165.548 66.5852L167.221 67.6805ZM167.221 38.4405L165.548 39.5358L165.554 39.5464L165.562 39.5569L167.221 38.4405ZM150.021 38.4405L148.362 37.3242L148.354 37.3346L148.348 37.3452L150.021 38.4405ZM150.021 67.6805L148.348 68.7758L148.354 68.7864L148.362 68.7969L150.021 67.6805ZM158.621 82.1925C153.979 82.1925 149.913 81.0508 146.36 78.8041L144.222 82.1849C148.467 84.869 153.287 86.1925 158.621 86.1925V82.1925ZM146.36 78.8041C142.814 76.5619 139.984 73.3102 137.891 68.9629L134.287 70.6982C136.666 75.6388 139.971 79.4965 144.222 82.1849L146.36 78.8041ZM137.904 68.9896C135.874 64.6091 134.821 59.3194 134.821 53.0605H130.821C130.821 59.759 131.947 65.6492 134.274 70.6714L137.904 68.9896ZM134.821 53.0605C134.821 46.8006 135.874 41.5438 137.9 37.226L134.278 35.5271C131.947 40.4972 130.821 46.3631 130.821 53.0605H134.821ZM137.895 37.2355C139.99 32.8303 142.82 29.5552 146.36 27.3169L144.222 23.9361C139.964 26.6285 136.66 30.5201 134.283 35.5175L137.895 37.2355ZM146.36 27.3169C149.913 25.0703 153.979 23.9285 158.621 23.9285V19.9285C153.287 19.9285 148.467 21.2521 144.222 23.9361L146.36 27.3169ZM158.621 23.9285C163.263 23.9285 167.329 25.0703 170.882 27.3169L173.02 23.9361C168.775 21.2521 163.955 19.9285 158.621 19.9285V23.9285ZM170.882 27.3169C174.417 29.552 177.215 32.8207 179.252 37.2174L182.882 35.5356C180.562 30.5297 177.283 26.6317 173.02 23.9361L170.882 27.3169ZM179.265 37.2442C181.342 41.5571 182.421 46.8072 182.421 53.0605H186.421C186.421 46.3565 185.264 40.4839 182.869 35.5089L179.265 37.2442ZM182.421 53.0605C182.421 59.3128 181.342 64.5959 179.261 68.9715L182.873 70.6895C185.264 65.6625 186.421 59.7655 186.421 53.0605H182.421ZM179.256 68.9811C177.221 73.3198 174.423 76.565 170.882 78.8041L173.02 82.1849C177.276 79.4933 180.556 75.6293 182.878 70.68L179.256 68.9811ZM170.882 78.8041C167.329 81.0508 163.263 82.1925 158.621 82.1925V86.1925C163.955 86.1925 168.775 84.869 173.02 82.1849L170.882 78.8041ZM158.621 74.4105C162.987 74.4105 166.473 72.4752 168.894 68.7758L165.548 66.5852C163.841 69.1925 161.594 70.4105 158.621 70.4105V74.4105ZM168.88 68.7969C171.334 65.1499 172.403 59.7932 172.403 53.0605H168.403C168.403 59.5145 167.351 63.9045 165.562 66.5642L168.88 68.7969ZM172.403 53.0605C172.403 46.3278 171.334 40.9711 168.88 37.3242L165.562 39.5569C167.351 42.2166 168.403 46.6066 168.403 53.0605H172.403ZM168.894 37.3452C166.473 33.6458 162.987 31.7105 158.621 31.7105V35.7105C161.594 35.7105 163.841 36.9286 165.548 39.5358L168.894 37.3452ZM158.621 31.7105C154.303 31.7105 150.831 33.6528 148.362 37.3242L151.68 39.5569C153.453 36.9216 155.715 35.7105 158.621 35.7105V31.7105ZM148.348 37.3452C145.964 40.987 144.925 46.3342 144.925 53.0605H148.925C148.925 46.6002 149.95 42.2007 151.694 39.5358L148.348 37.3452ZM144.925 53.0605C144.925 59.7869 145.964 65.134 148.348 68.7758L151.694 66.5852C149.95 63.9204 148.925 59.5209 148.925 53.0605H144.925ZM148.362 68.7969C150.831 72.4682 154.303 74.4105 158.621 74.4105V70.4105C155.715 70.4105 153.453 69.1995 151.68 66.5642L148.362 68.7969Z" fill="url(#paint0_linear_64_4115)"/>
<path d="M7.06 124.84H4.14V131H2.18V117H4.14V123.08H7.1L11.5 117H13.64L8.64 123.78L13.88 131H11.6L7.06 124.84ZM24.9723 120.4L19.8323 132.06C19.379 133.14 18.8457 133.9 18.2323 134.34C17.6323 134.78 16.9057 135 16.0523 135C15.5323 135 15.0257 134.913 14.5323 134.74C14.0523 134.58 13.6523 134.34 13.3323 134.02L14.1523 132.58C14.699 133.1 15.3323 133.36 16.0523 133.36C16.519 133.36 16.9057 133.233 17.2123 132.98C17.5323 132.74 17.819 132.32 18.0723 131.72L18.4123 130.98L13.7323 120.4H15.7323L19.4323 128.88L23.0923 120.4H24.9723ZM32.5581 120.3C33.5848 120.3 34.5048 120.527 35.3181 120.98C36.1315 121.433 36.7648 122.067 37.2181 122.88C37.6848 123.693 37.9181 124.633 37.9181 125.7C37.9181 126.767 37.6848 127.713 37.2181 128.54C36.7648 129.353 36.1315 129.987 35.3181 130.44C34.5048 130.893 33.5848 131.12 32.5581 131.12C31.7981 131.12 31.0981 130.973 30.4581 130.68C29.8315 130.387 29.2981 129.96 28.8581 129.4V134.88H26.9381V120.4H28.7781V122.08C29.2048 121.493 29.7448 121.053 30.3981 120.76C31.0515 120.453 31.7715 120.3 32.5581 120.3ZM32.3981 129.44C33.0781 129.44 33.6848 129.287 34.2181 128.98C34.7648 128.66 35.1915 128.22 35.4981 127.66C35.8181 127.087 35.9781 126.433 35.9781 125.7C35.9781 124.967 35.8181 124.32 35.4981 123.76C35.1915 123.187 34.7648 122.747 34.2181 122.44C33.6848 122.133 33.0781 121.98 32.3981 121.98C31.7315 121.98 31.1248 122.14 30.5781 122.46C30.0448 122.767 29.6181 123.2 29.2981 123.76C28.9915 124.32 28.8381 124.967 28.8381 125.7C28.8381 126.433 28.9915 127.087 29.2981 127.66C29.6048 128.22 30.0315 128.66 30.5781 128.98C31.1248 129.287 31.7315 129.44 32.3981 129.44ZM45.3277 131.12C44.2477 131.12 43.281 130.887 42.4277 130.42C41.5877 129.953 40.9277 129.313 40.4477 128.5C39.9677 127.673 39.7277 126.74 39.7277 125.7C39.7277 124.66 39.9677 123.733 40.4477 122.92C40.9277 122.093 41.5877 121.453 42.4277 121C43.281 120.533 44.2477 120.3 45.3277 120.3C46.2877 120.3 47.141 120.493 47.8877 120.88C48.6477 121.267 49.2343 121.827 49.6477 122.56L48.1877 123.5C47.8543 122.993 47.441 122.613 46.9477 122.36C46.4543 122.107 45.9077 121.98 45.3077 121.98C44.6143 121.98 43.9877 122.133 43.4277 122.44C42.881 122.747 42.4477 123.187 42.1277 123.76C41.821 124.32 41.6677 124.967 41.6677 125.7C41.6677 126.447 41.821 127.107 42.1277 127.68C42.4477 128.24 42.881 128.673 43.4277 128.98C43.9877 129.287 44.6143 129.44 45.3077 129.44C45.9077 129.44 46.4543 129.313 46.9477 129.06C47.441 128.807 47.8543 128.427 48.1877 127.92L49.6477 128.84C49.2343 129.573 48.6477 130.14 47.8877 130.54C47.141 130.927 46.2877 131.12 45.3277 131.12ZM56.5172 131.12C55.4639 131.12 54.5172 130.887 53.6772 130.42C52.8372 129.953 52.1772 129.313 51.6972 128.5C51.2305 127.673 50.9972 126.74 50.9972 125.7C50.9972 124.66 51.2305 123.733 51.6972 122.92C52.1772 122.093 52.8372 121.453 53.6772 121C54.5172 120.533 55.4639 120.3 56.5172 120.3C57.5705 120.3 58.5105 120.533 59.3372 121C60.1772 121.453 60.8305 122.093 61.2972 122.92C61.7772 123.733 62.0172 124.66 62.0172 125.7C62.0172 126.74 61.7772 127.673 61.2972 128.5C60.8305 129.313 60.1772 129.953 59.3372 130.42C58.5105 130.887 57.5705 131.12 56.5172 131.12ZM56.5172 129.44C57.1972 129.44 57.8039 129.287 58.3372 128.98C58.8839 128.66 59.3105 128.22 59.6172 127.66C59.9239 127.087 60.0772 126.433 60.0772 125.7C60.0772 124.967 59.9239 124.32 59.6172 123.76C59.3105 123.187 58.8839 122.747 58.3372 122.44C57.8039 122.133 57.1972 121.98 56.5172 121.98C55.8372 121.98 55.2239 122.133 54.6772 122.44C54.1439 122.747 53.7172 123.187 53.3972 123.76C53.0905 124.32 52.9372 124.967 52.9372 125.7C52.9372 126.433 53.0905 127.087 53.3972 127.66C53.7172 128.22 54.1439 128.66 54.6772 128.98C55.2239 129.287 55.8372 129.44 56.5172 129.44ZM72.0097 125.5C73.383 125.847 74.0697 126.707 74.0697 128.08C74.0697 129.013 73.7164 129.733 73.0097 130.24C72.3164 130.747 71.2764 131 69.8897 131H64.7897V120.4H69.7097C70.963 120.4 71.943 120.64 72.6497 121.12C73.3564 121.587 73.7097 122.253 73.7097 123.12C73.7097 123.68 73.5564 124.167 73.2497 124.58C72.9564 124.98 72.543 125.287 72.0097 125.5ZM66.6697 124.96H69.5497C70.283 124.96 70.8364 124.827 71.2097 124.56C71.5964 124.293 71.7897 123.907 71.7897 123.4C71.7897 122.387 71.043 121.88 69.5497 121.88H66.6697V124.96ZM69.7497 129.52C70.5497 129.52 71.1497 129.393 71.5497 129.14C71.9497 128.887 72.1497 128.493 72.1497 127.96C72.1497 127.413 71.963 127.007 71.5897 126.74C71.2297 126.473 70.6564 126.34 69.8697 126.34H66.6697V129.52H69.7497Z" fill="black"/>
<defs>
<linearGradient id="paint0_linear_64_4115" x1="0" y1="52.6605" x2="188" y2="52.6605" gradientUnits="userSpaceOnUse">
<stop stop-color="#F7941D"/>
<stop offset="1" stop-color="#27AAE1"/>
</linearGradient>
</defs>
</svg>
